<?xml version="1.0" encoding="utf-8"?><svg width="220" height="207" viewBox="0 0 220 207" xmlns="http://www.w3.org/2000/svg" xmlns:xlink="http://www.w3.org/1999/xlink"><svg width="22" height="22" viewBox="-2 -2 22 22" id="error-alert" x="104" y="80" xmlns="http://www.w3.org/2000/svg"><defs><path id="aaa" d="M10.311 3.86l4.951 8.912A1.5 1.5 0 0 1 13.951 15H4.049a1.5 1.5 0 0 1-1.311-2.228l4.95-8.912a1.5 1.5 0 0 1 2.623 0zM9 8.25a.75.75 0 0 0-.75.75v3.75a.75.75 0 1 0 1.5 0V9A.75.75 0 0 0 9 8.25zm0-.75A.75.75 0 1 0 9 6a.75.75 0 0 0 0 1.5z"/></defs><g fill="none" fill-rule="evenodd"><mask id="aab" fill="#fff"><use xlink:href="#aaa"/></mask><use fill="#D8D8D8" xlink:href="#aaa"/><g fill="#E75C53" mask="url(#aab)"><path d="M0 0h18v18H0z"/></g></g></svg><svg width="22" height="10" viewBox="-2 -2 22 10" id="group" x="188" y="148" xmlns="http://www.w3.org/2000/svg"><g fill="none" fill-rule="evenodd"><circle cx="9" cy="3" r="3" fill="#333"/><circle cx="16" cy="3" r="2" fill="#999"/><circle cx="2" cy="3" r="2" fill="#999"/></g></svg><svg width="36" height="36" viewBox="-2 -2 36 36" id="group-10" x="96" y="104" xmlns="http://www.w3.org/2000/svg"><defs><linearGradient id="aca" x1="78.455%" x2="23.016%" y1="80.551%" y2="19.42%"><stop offset="0%" stop-color="#A6D2A7"/><stop offset="100%" stop-color="#83C185"/></linearGradient><path id="acb" d="M16.688 24.726l-.688.652-.688-.652C11.125 20.758 9 17.57 9 15a7 7 0 0 1 14 0c0 2.57-2.125 5.758-6.312 9.726zM16 17.5a2.5 2.5 0 1 0 0-5 2.5 2.5 0 0 0 0 5z"/></defs><g fill="none" fill-rule="evenodd"><circle cx="16" cy="16" r="16" fill="url(#aca)"/><use fill="#FFF" fill-rule="nonzero" xlink:href="#acb"/></g></svg><svg width="104" height="104" viewBox="-2 -2 104 104" id="group-2" xmlns="http://www.w3.org/2000/svg"><g fill="none" fill-rule="evenodd" stroke="#CCC" stroke-width="2"><circle cx="50" cy="50" r="49"/><path d="M50 75c13.333-11.97 20-21.636 20-29 0-11.046-8.954-20-20-20s-20 8.954-20 20c0 7.364 6.667 17.03 20 29z"/><circle cx="50" cy="46" r="8"/></g></svg><svg width="20" height="20" viewBox="-2 -2 20 20" id="group-3" x="148" y="80" xmlns="http://www.w3.org/2000/svg"><defs><linearGradient id="aea" x1="78.455%" x2="23.016%" y1="80.551%" y2="19.42%"><stop offset="0%" stop-color="#A6D2A7"/><stop offset="100%" stop-color="#83C185"/></linearGradient><path id="aeb" d="M6.475 9.863l-1.668-1.67a.469.469 0 0 0-.668 0 .47.47 0 0 0 0 .668l1.997 2a.474.474 0 0 0 .672 0l5.053-5.053a.47.47 0 0 0 0-.668.469.469 0 0 0-.668 0L6.475 9.863z"/></defs><g fill="none" fill-rule="evenodd"><circle cx="8" cy="8" r="8" fill="url(#aea)"/><use fill="#FFF" fill-rule="nonzero" xlink:href="#aeb"/></g></svg><svg width="20" height="20" viewBox="-2 -2 20 20" id="group-7" x="168" y="80" xmlns="http://www.w3.org/2000/svg"><g fill="none" fill-rule="evenodd"><path d="M-2-2h20v20H-2z"/><path fill="#333" fill-rule="nonzero" d="M14.517 6.94a6.519 6.519 0 0 0-13.035 0 2.609 2.609 0 1 0 3.282 4.054L3.535 6.407a2.646 2.646 0 0 0-.426-.038c-.096 0-.19.006-.284.017A5.216 5.216 0 0 1 8 1.804a5.217 5.217 0 0 1 5.175 4.582 2.593 2.593 0 0 0-.284-.017c-.145 0-.287.016-.427.038l-1.228 4.585c.347.285.77.483 1.234.558a5.22 5.22 0 0 1-2.284 1.437l-.108.108a1.623 1.623 0 0 0-1.426-.856 1.63 1.63 0 1 0 0 3.261c.74 0 1.356-.495 1.556-1.17a6.533 6.533 0 0 0 4.173-3.212 2.604 2.604 0 0 0 .137-4.178z"/></g></svg><svg width="18" height="18" viewBox="-2 -2 18 18" id="icon-arrow-right-mini-green" x="169" y="142" xmlns="http://www.w3.org/2000/svg"><defs><path id="aga" d="M5.42 9.263L7.682 7 5.418 4.737a.58.58 0 1 1 .823-.823l2.677 2.678a.58.58 0 0 1 0 .822l-2.677 2.678a.58.58 0 0 1-.823 0 .593.593 0 0 1 0-.829z"/></defs><g fill="none" fill-rule="evenodd"><mask id="agb" fill="#fff"><use xlink:href="#aga"/></mask><g fill="#3F873F" mask="url(#agb)"><path d="M0 0h14.08v14.08H0z"/></g></g></svg><svg width="19" height="19" viewBox="-2 -2 19 19" id="icon-arrow-right-white" x="96" y="142" xmlns="http://www.w3.org/2000/svg"><defs><path id="aha" d="M5.806 9.925L8.231 7.5 5.806 5.075a.622.622 0 1 1 .881-.881l2.87 2.869a.622.622 0 0 1 0 .88l-2.87 2.87a.622.622 0 0 1-.88 0 .636.636 0 0 1 0-.888z"/></defs><g fill="none" fill-rule="evenodd"><mask id="ahb" fill="#fff"><use xlink:href="#aha"/></mask><g fill="#FFF" mask="url(#ahb)"><path d="M0 0h14.881v14.881H0z"/></g></g></svg><svg width="32" height="32" viewBox="-2 -2 32 32" id="icon-bottom-action-bar-add-to-cart-active" x="132" y="104" xmlns="http://www.w3.org/2000/svg"><defs><path id="aia" d="M8.398 17.4c-.99 0-1.79.81-1.79 1.8s.8 1.8 1.79 1.8 1.8-.81 1.8-1.8-.81-1.8-1.8-1.8zM3 3.9c0 .495.405.9.9.9h.9l3.238 6.831-1.214 2.196c-.657 1.206.207 2.673 1.574 2.673h9.896c.495 0 .9-.405.9-.9s-.405-.9-.9-.9H8.398l.99-1.8h6.702a1.79 1.79 0 0 0 1.575-.927l3.22-5.841a.896.896 0 0 0-.782-1.332H6.788l-.603-1.287A.893.893 0 0 0 5.375 3H3.9c-.495 0-.9.405-.9.9zm14.395 13.5c-.99 0-1.79.81-1.79 1.8s.8 1.8 1.79 1.8 1.799-.81 1.799-1.8-.81-1.8-1.8-1.8z"/></defs><g fill="none" fill-rule="evenodd" transform="translate(2 2)"><mask id="aib" fill="#fff"><use xlink:href="#aia"/></mask><g fill="#8E8E93" mask="url(#aib)"><path d="M0 0h24v24H0z"/></g></g></svg><svg width="32" height="32" viewBox="-2 -2 32 32" id="icon-bottom-action-bar-add-to-list-filled-active" x="188" xmlns="http://www.w3.org/2000/svg"><defs><path id="aja" d="M13.214 19.532a1.785 1.785 0 0 1-2.42-.01l-.099-.09c-4.723-4.307-7.809-7.126-7.692-10.644.054-1.542.837-3.02 2.105-3.89 2.375-1.632 5.308-.87 6.892.998 1.583-1.868 4.516-2.639 6.891-.998 1.269.87 2.051 2.348 2.105 3.89.126 3.518-2.969 6.337-7.692 10.662l-.09.082z"/></defs><g fill="none" fill-rule="evenodd" transform="translate(2 2)"><mask id="ajb" fill="#fff"><use xlink:href="#aja"/></mask><g fill="#8E8E93" mask="url(#ajb)"><path d="M0 0h24v24H0z"/></g></g></svg><svg width="32" height="32" viewBox="-2 -2 32 32" id="icon-bottom-action-bar-home-active" x="188" y="32" xmlns="http://www.w3.org/2000/svg"><defs><path id="aka" d="M10.041 19.04v-4.804h3.913v4.803c0 .529.44.961.979.961h2.934a.972.972 0 0 0 .979-.96v-6.725h1.663c.45 0 .665-.548.322-.836l-8.178-7.234a1 1 0 0 0-1.31 0l-8.179 7.234c-.332.288-.127.836.323.836H5.15v6.724c0 .529.44.961.978.961h2.935a.972.972 0 0 0 .978-.96z"/></defs><g fill="none" fill-rule="evenodd" transform="translate(2 2)"><mask id="akb" fill="#fff"><use xlink:href="#aka"/></mask><g fill="#8E8E93" mask="url(#akb)"><path d="M0 0h24v24H0z"/></g></g></svg><svg width="28" height="28" viewBox="-2 -2 28 28" id="icon-cart" x="188" y="92" xmlns="http://www.w3.org/2000/svg"><defs><path id="ala" d="M8.398 17.4c-.99 0-1.79.81-1.79 1.8s.8 1.8 1.79 1.8 1.8-.81 1.8-1.8-.81-1.8-1.8-1.8zM3 3.9c0 .495.405.9.9.9h.9l3.238 6.831-1.214 2.196c-.657 1.206.207 2.673 1.574 2.673h9.896c.495 0 .9-.405.9-.9s-.405-.9-.9-.9H8.398l.99-1.8h6.702a1.79 1.79 0 0 0 1.575-.927l3.22-5.841a.896.896 0 0 0-.782-1.332H6.788l-.603-1.287A.893.893 0 0 0 5.375 3H3.9c-.495 0-.9.405-.9.9zm14.395 13.5c-.99 0-1.79.81-1.79 1.8s.8 1.8 1.79 1.8 1.799-.81 1.799-1.8-.81-1.8-1.8-1.8z"/></defs><g fill="none" fill-rule="evenodd"><mask id="alb" fill="#fff"><use xlink:href="#ala"/></mask><g fill="#FFF" mask="url(#alb)"><path d="M0 0h24v24H0z"/></g></g></svg><svg width="28" height="28" viewBox="-2 -2 28 28" id="icon-clear" x="188" y="120" xmlns="http://www.w3.org/2000/svg"><defs><path id="ama" d="M12 3c-4.968 0-9 4.032-9 9s4.032 9 9 9 9-4.032 9-9-4.032-9-9-9zm3.6 9.9h-2.7v2.7c0 .495-.405.9-.9.9a.903.903 0 0 1-.9-.9v-2.7H8.4a.903.903 0 0 1-.9-.9c0-.495.405-.9.9-.9h2.7V8.4c0-.495.405-.9.9-.9s.9.405.9.9v2.7h2.7c.495 0 .9.405.9.9s-.405.9-.9.9z"/></defs><g fill="none" fill-rule="evenodd"><mask id="amb" fill="#fff"><use xlink:href="#ama"/></mask><g fill="#8E8E93" mask="url(#amb)"><path d="M0 0h24v24H0z"/></g></g></svg><svg width="26" height="26" viewBox="-2 -2 26 26" id="icon-close" x="162" y="22" xmlns="http://www.w3.org/2000/svg"><defs><path id="ana" d="M16.775 5.234a.913.913 0 0 0-1.292 0L11 9.707 6.518 5.225a.913.913 0 1 0-1.293 1.293L9.707 11l-4.482 4.482a.913.913 0 1 0 1.293 1.293L11 12.293l4.482 4.482a.913.913 0 1 0 1.293-1.292L12.293 11l4.482-4.482a.919.919 0 0 0 0-1.284z"/></defs><g fill="none" fill-rule="evenodd"><mask id="anb" fill="#fff"><use xlink:href="#ana"/></mask><g fill="#8E8E93" mask="url(#anb)"><path d="M0 0h21.92v21.92H0z"/></g></g></svg><svg width="58" height="58" viewBox="-2 -2 58 58" id="icon-delete-circle" y="104" xmlns="http://www.w3.org/2000/svg"><defs><path id="aoa" d="M6 19c0 1.1.9 2 2 2h8c1.1 0 2-.9 2-2V9c0-1.1-.9-2-2-2H8c-1.1 0-2 .9-2 2v10zM18 4h-2.5l-.71-.71c-.18-.18-.44-.29-.7-.29H9.91c-.26 0-.52.11-.7.29L8.5 4H6c-.55 0-1 .45-1 1s.45 1 1 1h12c.55 0 1-.45 1-1s-.45-1-1-1z"/></defs><g fill="none" fill-rule="evenodd"><circle cx="27" cy="27" r="27" fill="#F8F8F8" fill-rule="nonzero"/><g transform="translate(15 15)"><mask id="aob" fill="#fff"><use xlink:href="#aoa"/></mask><g fill="#666" mask="url(#aob)"><path d="M0 0h24v24H0z"/></g></g></g></svg><svg width="28" height="28" viewBox="-2 -2 28 28" id="icon-grid-view" x="56" y="162" xmlns="http://www.w3.org/2000/svg"><defs><path id="apa" d="M19.5 7.75c0 .69-.56 1.25-1.25 1.25h-2.5c-.69 0-1.25-.56-1.25-1.25v-2.5c0-.69.56-1.25 1.25-1.25h2.5c.69 0 1.25.56 1.25 1.25v2.5zM18.333 2.5h-2.666A2.667 2.667 0 0 0 13 5.167v2.666a2.667 2.667 0 0 0 2.667 2.667h2.666A2.667 2.667 0 0 0 21 7.833V5.167A2.667 2.667 0 0 0 18.333 2.5zM19.5 18.25c0 .966-.56 1.75-1.25 1.75h-2.5c-.69 0-1.25-.784-1.25-1.75v-3.5c0-.966.56-1.75 1.25-1.75h2.5c.69 0 1.25.784 1.25 1.75v3.5zm-1.167-6.75h-2.666C14.194 11.5 13 12.992 13 14.833v3.334c0 1.84 1.194 3.333 2.667 3.333h2.666c1.473 0 2.667-1.492 2.667-3.333v-3.334c0-1.84-1.194-3.333-2.667-3.333zM9.5 18.75c0 .69-.56 1.25-1.25 1.25h-2.5c-.69 0-1.25-.56-1.25-1.25v-2.5c0-.69.56-1.25 1.25-1.25h2.5c.69 0 1.25.56 1.25 1.25v2.5zM8.333 13.5H5.667A2.667 2.667 0 0 0 3 16.167v2.666A2.667 2.667 0 0 0 5.667 21.5h2.666A2.667 2.667 0 0 0 11 18.833v-2.666A2.667 2.667 0 0 0 8.333 13.5zM8.25 11h-2.5c-.69 0-1.25-.784-1.25-1.75v-3.5C4.5 4.784 5.06 4 5.75 4h2.5c.69 0 1.25.784 1.25 1.75v3.5c0 .966-.56 1.75-1.25 1.75zm.083-8.5H5.667C4.194 2.5 3 3.993 3 5.833v3.334c0 1.84 1.194 3.333 2.667 3.333h2.666C9.806 12.5 11 11.008 11 9.167V5.833C11 3.993 9.806 2.5 8.333 2.5z"/></defs><g fill="none" fill-rule="evenodd"><mask id="apb" fill="#fff"><use xlink:href="#apa"/></mask><use fill="#8E8E93" xlink:href="#apa"/><g fill="#8E8E93" mask="url(#apb)"><path d="M0 0h24v24H0z"/></g></g></svg><svg width="19" height="19" viewBox="-2 -2 19 19" id="icon-info" x="77" y="142" xmlns="http://www.w3.org/2000/svg"><defs><path id="aqa" d="M7.5 1.875a5.625 5.625 0 1 0 0 11.25 5.625 5.625 0 0 0 0-11.25zm.223 8.927a.594.594 0 0 1-.418.164.594.594 0 0 1-.417-.164.553.553 0 0 1-.165-.418c0-.165.049-.3.165-.407a.553.553 0 0 1 .417-.165c.166 0 .31.05.426.165a.555.555 0 0 1 .165.407c0 .175-.058.31-.173.418zm1.395-3.88c-.097.118-.358.37-.786.748a1.969 1.969 0 0 0-.455.533 1.358 1.358 0 0 0-.183.708v.222h-.776v-.222c0-.32.058-.601.175-.844.135-.29.455-.659.98-1.124.154-.155.27-.272.328-.35.194-.242.29-.494.29-.765 0-.387-.116-.688-.329-.902-.222-.232-.543-.34-.95-.34-.485 0-.844.156-1.076.476-.214.272-.32.64-.32 1.115h-.765c0-.679.183-1.222.572-1.628.387-.426.93-.64 1.628-.64.62 0 1.115.165 1.492.514.359.33.543.786.543 1.367 0 .435-.125.814-.368 1.133z"/></defs><g fill="none" fill-rule="evenodd"><mask id="aqb" fill="#fff"><use xlink:href="#aqa"/></mask><g fill="#8E8E93" mask="url(#aqb)"><path d="M0 0h14.881v14.881H0z"/></g></g></svg><svg width="18" height="18" viewBox="-2 -2 18 18" id="icon-info-gray" x="151" y="142" xmlns="http://www.w3.org/2000/svg"><defs><path id="ara" d="M0 0h133v126H0z"/><path id="arb" d="M7 1.75a5.25 5.25 0 1 0 0 10.5 5.25 5.25 0 0 0 0-10.5zm.208 8.331a.554.554 0 0 1-.39.154.554.554 0 0 1-.39-.154.516.516 0 0 1-.153-.39.49.49 0 0 1 .154-.38.516.516 0 0 1 .39-.153c.154 0 .289.046.397.154.1.1.154.226.154.38 0 .163-.054.29-.162.39zm1.302-3.62c-.09.11-.334.344-.733.697-.2.172-.335.335-.425.498-.117.2-.171.417-.171.66v.208h-.724v-.207c0-.298.054-.561.163-.788.127-.27.425-.615.914-1.049.144-.144.253-.253.307-.326.181-.227.271-.461.271-.715 0-.361-.109-.642-.307-.841-.208-.217-.507-.317-.887-.317-.453 0-.788.144-1.005.444-.2.253-.298.597-.298 1.04h-.714c0-.633.171-1.14.534-1.52.361-.397.868-.596 1.52-.596.578 0 1.04.153 1.392.48.335.307.507.733.507 1.275 0 .406-.117.76-.344 1.057z"/></defs><g fill="none" fill-rule="evenodd"><path fill="#FFF" fill-rule="nonzero" d="M-256-146h375v700h-375z"/><path d="M-256-66h375v93h-375z"/><mask id="arc" fill="#fff"><use xlink:href="#arb"/></mask><g fill="#8E8E93" mask="url(#arc)"><path d="M0 0h14.08v14.08H0z"/></g></g></svg><svg width="28" height="28" viewBox="-2 -2 28 28" id="icon-list-view" x="140" y="162" xmlns="http://www.w3.org/2000/svg"><defs><path id="asa" d="M5.5 5.996h-1a.5.5 0 0 1-.5-.5v-1a.5.5 0 0 1 .5-.5h1a.5.5 0 0 1 .5.5v1a.5.5 0 0 1-.5.5zm.167-3H4.333C3.597 2.996 3 3.593 3 4.329v1.333c0 .737.597 1.334 1.333 1.334h1.334C6.403 6.996 7 6.399 7 5.662V4.33c0-.736-.597-1.333-1.333-1.333zm4.333 1h10a1 1 0 0 1 0 2H10a1 1 0 1 1 0-2zM6 18.5a.5.5 0 0 1-.5.5h-1a.5.5 0 0 1-.5-.5v-1a.5.5 0 0 1 .5-.5h1a.5.5 0 0 1 .5.5v1zM5.667 16H4.333C3.597 16 3 16.597 3 17.333v1.334C3 19.403 3.597 20 4.333 20h1.334C6.403 20 7 19.403 7 18.667v-1.334C7 16.597 6.403 16 5.667 16zM10 17h10a1 1 0 0 1 0 2H10a1 1 0 0 1 0-2zm-4-5a.5.5 0 0 1-.5.5h-1A.5.5 0 0 1 4 12v-1a.5.5 0 0 1 .5-.5h1a.5.5 0 0 1 .5.5v1zm-.333-2.5H4.333C3.597 9.5 3 10.097 3 10.833v1.334c0 .736.597 1.333 1.333 1.333h1.334C6.403 13.5 7 12.903 7 12.167v-1.334C7 10.097 6.403 9.5 5.667 9.5zm4.333 1h10a1 1 0 0 1 0 2H10a1 1 0 0 1 0-2z"/></defs><g fill="none" fill-rule="evenodd"><mask id="asb" fill="#fff"><use xlink:href="#asa"/></mask><use fill="#8E8E93" xlink:href="#asa"/><g fill="#8E8E93" mask="url(#asb)"><path d="M0 0h24v24H0z"/></g></g></svg><svg width="28" height="28" viewBox="-2 -2 28 28" id="icon-more" y="162" xmlns="http://www.w3.org/2000/svg"><defs><path id="ata" d="M6 10c-1.1 0-2 .9-2 2s.9 2 2 2 2-.9 2-2-.9-2-2-2zm12 0c-1.1 0-2 .9-2 2s.9 2 2 2 2-.9 2-2-.9-2-2-2zm-6 0c-1.1 0-2 .9-2 2s.9 2 2 2 2-.9 2-2-.9-2-2-2z"/></defs><g fill="none" fill-rule="evenodd"><mask id="atb" fill="#fff"><use xlink:href="#ata"/></mask><g fill="#8E8E93" mask="url(#atb)"><path d="M0 0h23.762v23.762H0z"/></g></g></svg><svg width="26" height="26" viewBox="-2 -2 26 26" id="icon-navigation-bar-on-primary-go-back" x="162" y="48" xmlns="http://www.w3.org/2000/svg"><defs><path id="aua" d="M14.537 20.593l-9.245-8.914a.935.935 0 0 1 0-1.358l9.245-8.914a1.482 1.482 0 0 1 2.04 0 1.357 1.357 0 0 1 0 1.967L8.67 11l7.909 7.625a1.359 1.359 0 0 1 0 1.968 1.482 1.482 0 0 1-2.04 0"/></defs><g fill="none" fill-rule="evenodd"><path d="M0 0h22v22H0z"/><mask id="aub" fill="#fff"><use xlink:href="#aua"/></mask><g fill="#FFF" mask="url(#aub)"><path d="M0 0h22v22H0z"/></g></g></svg><svg width="38" height="38" viewBox="-2 -2 38 38" id="icon-on-primary-arrow-right-circle" x="58" y="104" xmlns="http://www.w3.org/2000/svg"><defs><path id="ava" d="M20.615 17.701l-6.102 6.104a.798.798 0 1 1-1.128-1.131L19.061 17l-5.676-5.674a.798.798 0 1 1 1.128-1.132l6.102 6.105c.19.191.25.454.206.701a.786.786 0 0 1-.206.701zM17 4.25C9.959 4.25 4.25 9.956 4.25 17S9.959 29.75 17 29.75 29.75 24.044 29.75 17 24.041 4.25 17 4.25z"/></defs><g fill="none" fill-rule="evenodd"><mask id="avb" fill="#fff"><use xlink:href="#ava"/></mask><use fill="#FFF" xlink:href="#ava"/><g fill="#FFF" mask="url(#avb)"><path d="M0 0h33.92v33.92H0z"/></g></g></svg><svg width="22" height="22" viewBox="-2 -2 22 22" id="icon-private-mini-green" x="126" y="80" xmlns="http://www.w3.org/2000/svg"><defs><path id="awa" d="M7.147 6.067A5.455 5.455 0 0 1 9 5.745a5.45 5.45 0 0 1 1.853.322V4.898c0-.81-.692-1.471-1.542-1.471H8.69c-.85 0-1.543.66-1.543 1.471v1.169zm-1.235.637V4.898c0-1.46 1.246-2.648 2.778-2.648h.62c1.532 0 2.778 1.188 2.778 2.648v1.806c1.31.91 2.162 2.384 2.162 4.044 0 2.758-2.355 5.002-5.25 5.002s-5.25-2.244-5.25-5.002c0-1.66.852-3.133 2.162-4.044zM9 14.573c2.214 0 4.015-1.716 4.015-3.825 0-2.11-1.801-3.826-4.015-3.826-2.214 0-4.015 1.716-4.015 3.826 0 2.109 1.801 3.825 4.015 3.825zM8.382 9.63h1.236v2.772H8.382V9.63z"/></defs><g fill="none" fill-rule="evenodd"><mask id="awb" fill="#fff"><use xlink:href="#awa"/></mask><use fill="#F38A00" fill-rule="nonzero" xlink:href="#awa"/><g fill="#3F873F" mask="url(#awb)"><path d="M0 0h18v18H0z"/></g></g></svg><svg width="19" height="19" viewBox="-2 -2 19 19" id="icon-product-detail-shipping-saver" x="164" y="104" xmlns="http://www.w3.org/2000/svg"><g fill="none" fill-rule="evenodd"><path d="M12.7 3.255a3.234 3.234 0 0 0 .002 0l-.002.002v-.002zm.694-2.421l-1.185 1.22a29.313 29.313 0 0 1-.543-.077 4.67 4.67 0 0 1 .071-.195c.355-.894.913-1.377 1.26-1.377.045 0 .088.009.125.024.125.051.22.196.272.405zM11.108 3.14l.004.04-.32.33a.535.535 0 0 1 .31-.623c-.003.087 0 .172.006.254zm.27.816v.009c-.078.052-.158.026-.231-.07.073.096.153.114.23.061h.001z"/><path fill="#F8F1C3" fill-rule="nonzero" d="M12.049 4.166v.003h-.002l-.167.17-.045.045-.059.045a.63.63 0 0 1-.18.085.66.66 0 0 1-.666-.174l-.471-.485h-.002l-.093-.098a.705.705 0 0 1 0-.976l.843-.868c.02.004.041.007.063.009v.002a3.52 3.52 0 0 0-.169.963.515.515 0 0 0-.173.118v.002a.535.535 0 0 0-.136.503.514.514 0 0 0 .584.4h.002v.003h.002a.818.818 0 0 0 .28.21c.021.008.043.017.067.023.043.014.09.023.136.027l.071.002a.66.66 0 0 0 .115-.009z"/><path fill="#F8F1C3" fill-rule="nonzero" d="M10.024 4.108l.567.584a.66.66 0 0 0 .95 0l.51-.524-.17.174a.66.66 0 0 1-.95 0l-.567-.584a.706.706 0 0 1 0-.976l-.34.35a.706.706 0 0 0 0 .976z"/><path fill="#816D5E" fill-rule="nonzero" d="M13.559 2.545a3.485 3.485 0 0 1-.792 1.228l-.004.004a36.688 36.688 0 0 0-.04-.303v-.002l-.025-.207.002-.004.002-.002a2.712 2.712 0 0 0 .195-.274l.067-.111.056-.1c0-.005.004-.009.007-.016.058-.11.114-.233.166-.365.247-.625.29-1.192.201-1.559-.052-.209-.147-.354-.272-.405a.324.324 0 0 0-.126-.024c-.346 0-.904.483-1.259 1.377a4.39 4.39 0 0 0-.071.196 3.35 3.35 0 0 1-.193-.027l-.203-.03c.03-.097.065-.195.102-.29C11.752.67 12.42 0 12.996 0c.046 0 .091.004.132.011.05.009.098.022.143.042.19.08.338.24.433.463.02.045.034.089.05.138.034.113.058.242.069.38.036.454-.057.99-.264 1.51z"/><path fill="#705F51" fill-rule="nonzero" d="M11.72 3.69a.522.522 0 0 1-.33.22l-.01.003h-.002l-.002-.002a.802.802 0 0 1-.095-.145c-.015-.025-.028-.053-.041-.08a1.075 1.075 0 0 1-.037-.09c-.01-.03-.022-.061-.03-.095a3.182 3.182 0 0 1-.026-.1l-.02-.107a2.037 2.037 0 0 1-.015-.113l-.004-.04c-.007-.082-.009-.167-.007-.254a.53.53 0 0 1 .253-.033.311.311 0 0 1 .063.013c.011 0 .02.003.028.007.018.004.033.011.05.018 0 .073 0 .147.007.216.021.273.1.478.218.582z"/><path fill="#ECE5BB" fill-rule="nonzero" d="M12.724 3.472v.003l-.673.691v.003h-.004a.767.767 0 0 1-.32-.022c-.024-.007-.046-.016-.068-.025a.524.524 0 0 1-.077-.04.818.818 0 0 1-.203-.17h.001l.01-.001a.522.522 0 0 0 .33-.22.542.542 0 0 0-.225-.8c0-.035.002-.07.004-.108.018-.254.074-.527.167-.805.214.03.4.057.543.075l.333.05.156 1.163.026.206z"/><path fill="#705F51" fill-rule="nonzero" d="M11.496 2.891c.006-.283.065-.596.17-.913l-.397-.055a3.518 3.518 0 0 0-.167.965.508.508 0 0 1 .394.003z"/><path fill="#3F873F" fill-rule="nonzero" d="M13.102 7.877l-6.589 6.776a1.143 1.143 0 0 1-1.635 0L.335 9.982a1.216 1.216 0 0 1 0-1.68l6.59-6.775c.144-.15 2.667.169 4.282.387l-.843.867-.34.352a.703.703 0 0 0 0 .974l.567.585a.66.66 0 0 0 .95 0l.51-.525.673-.692.039.303c.21 1.655.476 3.96.34 4.1z"/><path fill="#C24443" fill-rule="nonzero" d="M12.018 4.171l.674-.673.082.081-.674.674z"/><path d="M5.585 10.39a.704.704 0 0 0-.166-.267.891.891 0 0 0-.23-.175.508.508 0 0 0-.246-.052.54.54 0 0 0-.21.045c-.07.031-.147.08-.234.147l-.227.171a.439.439 0 0 1-.112.067.289.289 0 0 1-.102.022.196.196 0 0 1-.09-.02.296.296 0 0 1-.16-.267c0-.084.043-.171.13-.26.053-.056.118-.107.192-.156a.477.477 0 0 1 .26-.076l.001-.416a.853.853 0 0 0-.38.09c-.115.055-.23.142-.344.26a1.094 1.094 0 0 0-.204.287.824.824 0 0 0-.078.291.676.676 0 0 0 .208.527c.054.056.11.1.167.134.088.055.181.08.274.078a.562.562 0 0 0 .221-.047c.071-.03.152-.076.236-.14l.227-.172a.631.631 0 0 1 .115-.075.286.286 0 0 1 .088-.02c.07 0 .132.029.189.087a.264.264 0 0 1 .08.233.572.572 0 0 1-.167.283 1.05 1.05 0 0 1-.247.189.565.565 0 0 1-.29.075v.427a.896.896 0 0 0 .44-.1 1.58 1.58 0 0 0 .38-.293 1.28 1.28 0 0 0 .21-.285c.052-.1.085-.2.098-.3a.697.697 0 0 0-.029-.292zm.513-2.053l-.867-.414-.254.26.405.89.645 1.424.335-.345-.19-.402.584-.603.389.2L7.482 9l-1.384-.663zM5.99 9.378l-.294-.627-.098-.205.2.1.603.31-.411.422zm2.479-1.982l-.749.77-1.362-1.402-.323.332.636.652L7.686 8.79l1.068-1.099zM9.816 6.01l-.765.786-.4-.412.65-.67-.287-.295-.651.67-.04-.04-.345-.359.763-.785-.287-.296-1.086 1.117.634.654 1.014 1.043 1.086-1.119z" fill="#FDFEFE" fill-rule="nonzero"/><path fill="#040000" fill-rule="nonzero" d="M12.055 4.16l-.004.006.673-.691-.669.685zm-.006.006v.01h.009v-.01h-.01zm-.002.003l-.167.17v.003l.169-.173h-.002zm0 0l-.167.17v.003l.169-.173h-.002zm1.78-3.141a1.796 1.796 0 0 0-.07-.38c-.014-.05-.034-.09-.051-.134l-.312.32c.089.367.046.934-.2 1.56a3.766 3.766 0 0 1-.167.364c-.003.007-.007.011-.007.016l-.056.1-.067.111a4.558 4.558 0 0 1-.098.145 1.304 1.304 0 0 1-.05.066c-.014.02-.03.043-.047.063a.804.804 0 0 1 .009.075.613.613 0 0 1-.011-.073l-.002.004-.156-1.163-.333-.049-1.097 1.128a2.037 2.037 0 0 0 .091.416c.01.03.024.06.037.089.013.026.026.055.041.08a.802.802 0 0 0 .095.144.514.514 0 0 1-.584-.4l-.333.345h-.002l-.34.349-1.793 1.844-.322.332-1.008 1.038-.323.33-.573.589-.3.31-.102.104-.314.322-1.214 1.248-.408.42-1.337 1.375 2.46 2.53a1.143 1.143 0 0 0 1.635 0l6.584-6.77.005-.006a.06.06 0 0 0 .013-.027.6.6 0 0 0 .013-.073c.058-.483-.178-2.507-.366-3.997V3.77a.744.744 0 0 0 .058-.055c.02-.018.037-.04.057-.06a3.486 3.486 0 0 0 .681-1.117c.208-.52.3-1.057.264-1.51zm-2.165 1.98a.542.542 0 0 1 .058.682c-.119-.104-.197-.309-.218-.583-.007-.068-.007-.142-.007-.215.06.024.12.064.167.115zm.194 1.359l-.311.318.285-.296.005-.005.045-.044.004-.007.163-.164-.167.17v.003l-.024.025zm.19-.198l-.166.17v.003l.169-.173h-.002zm.003-.003v.01h.009v-.01h-.01z" opacity=".06"/></g></svg><svg width="28" height="28" viewBox="-2 -2 28 28" id="icon-product-quote-add-to-cart-active" x="112" y="162" xmlns="http://www.w3.org/2000/svg"><g fill="none" fill-rule="evenodd"><circle cx="12" cy="12" r="11" stroke="#F48C03" stroke-width=".825"/><path fill="#F48C03" d="M8.576 9.8l1.018 4.576c.09.408.475.704.915.704h4.627c.436 0 .818-.293.907-.697L17.061 9.8H8.576zm6.56 6.16h-4.627c-.85 0-1.595-.586-1.775-1.393L7.6 9.463 6.775 6.28H5.29a.44.44 0 0 1 0-.88h1.825a.44.44 0 0 1 .426.33l.827 3.19h9.242a.44.44 0 0 1 .43.535l-1.138 5.119c-.178.803-.921 1.386-1.766 1.386zm-3.686 1.76a.88.88 0 1 1-1.76 0 .88.88 0 0 1 1.76 0m4.4 0a.88.88 0 1 1-1.76 0 .88.88 0 0 1 1.76 0"/></g></svg><svg width="17" height="17" viewBox="-2 -2 17 17" id="icon-product-quote-shipping-saver" x="17" y="190" xmlns="http://www.w3.org/2000/svg"><g fill="none" fill-rule="evenodd"><path d="M11.007 2.821a2.803 2.803 0 0 0 .002 0l-.002.002v-.002zm.601-2.098l-1.027 1.056a25.405 25.405 0 0 1-.47-.065 3.52 3.52 0 0 1 .061-.17c.308-.775.792-1.193 1.091-1.193a.3.3 0 0 1 .11.021c.108.044.19.17.235.35zM9.627 2.722l.004.035-.278.285a.463.463 0 0 1 .268-.54c-.002.075 0 .149.006.22zm.234.707v.007c-.067.046-.137.023-.2-.06.063.083.133.098.198.053h.002z"/><path fill="#F8F1C3" fill-rule="nonzero" d="M10.442 3.61v.003h-.002l-.144.148-.04.039c-.016.013-.033.027-.05.038a.545.545 0 0 1-.156.073.573.573 0 0 1-.577-.15l-.409-.42h-.001l-.081-.085a.611.611 0 0 1 0-.846l.731-.752c.017.004.036.006.054.008v.002a3.05 3.05 0 0 0-.146.834.446.446 0 0 0-.15.102v.002a.463.463 0 0 0-.118.436.446.446 0 0 0 .506.347h.002v.002h.002a.709.709 0 0 0 .242.181c.019.008.037.016.058.021a.61.61 0 0 0 .118.024l.062.002a.572.572 0 0 0 .1-.008z"/><path fill="#F8F1C3" fill-rule="nonzero" d="M8.687 3.56l.492.506a.572.572 0 0 0 .823 0l.442-.454-.147.15a.572.572 0 0 1-.823 0l-.492-.505a.612.612 0 0 1 0-.846l-.295.303a.612.612 0 0 0 0 .846z"/><path fill="#816D5E" fill-rule="nonzero" d="M11.75 2.205a3.02 3.02 0 0 1-.685 1.065l-.004.003-.034-.262V3.01l-.022-.179.002-.004.002-.002a2.35 2.35 0 0 0 .169-.237l.057-.096.05-.087c0-.004.003-.008.005-.013.05-.097.1-.203.144-.317.214-.541.251-1.033.174-1.351-.045-.181-.127-.307-.236-.35a.28.28 0 0 0-.109-.022c-.3 0-.783.418-1.09 1.193a3.805 3.805 0 0 0-.062.17 2.903 2.903 0 0 1-.167-.023c-.057-.008-.117-.018-.177-.025.027-.085.057-.17.089-.253C10.186.58 10.765 0 11.263 0c.04 0 .08.004.115.01a.54.54 0 0 1 .124.036.72.72 0 0 1 .375.401 1.557 1.557 0 0 1 .103.45c.032.393-.05.857-.23 1.308z"/><path fill="#705F51" fill-rule="nonzero" d="M10.157 3.198a.452.452 0 0 1-.287.19l-.007.003h-.002l-.002-.002a.695.695 0 0 1-.082-.125.932.932 0 0 1-.068-.147 2.757 2.757 0 0 1-.049-.17l-.016-.092a1.765 1.765 0 0 1-.013-.098l-.004-.035c-.006-.071-.008-.144-.006-.22a.459.459 0 0 1 .22-.029.27.27 0 0 1 .054.012.05.05 0 0 1 .024.006c.015.004.028.01.043.015 0 .064 0 .127.006.187.019.237.086.415.19.505z"/><path fill="#ECE5BB" fill-rule="nonzero" d="M11.027 3.01v.001l-.583.6v.002h-.004a.665.665 0 0 1-.277-.02c-.02-.005-.04-.013-.058-.02a.454.454 0 0 1-.068-.035.709.709 0 0 1-.176-.147h.002l.008-.002a.452.452 0 0 0 .286-.19.47.47 0 0 0-.195-.693c0-.03.002-.061.004-.094.015-.22.064-.457.145-.698.185.027.346.05.47.065l.289.043.135 1.008.022.18z"/><path fill="#705F51" fill-rule="nonzero" d="M9.963 2.506c.005-.246.056-.517.148-.792l-.344-.047c-.09.287-.14.573-.146.836a.44.44 0 0 1 .342.003z"/><path fill="#3F873F" fill-rule="nonzero" d="M11.355 6.827L5.645 12.7a.99.99 0 0 1-1.417 0L.29 8.651a1.054 1.054 0 0 1 0-1.456L6 1.323c.126-.13 2.312.147 3.712.336l-.731.751-.294.305a.609.609 0 0 0 0 .844l.49.507a.571.571 0 0 0 .824 0l.442-.455.583-.6.034.263c.182 1.434.412 3.432.294 3.553z"/><path fill="#C24443" fill-rule="nonzero" d="M10.416 3.615L11 3.031l.07.07-.583.585z"/><path d="M4.84 9.005a.61.61 0 0 0-.144-.231.772.772 0 0 0-.198-.153.44.44 0 0 0-.214-.044.468.468 0 0 0-.182.038c-.06.027-.127.07-.202.128l-.197.148a.38.38 0 0 1-.098.058.25.25 0 0 1-.088.02.17.17 0 0 1-.079-.018.257.257 0 0 1-.139-.231c0-.074.038-.149.113-.226a1.02 1.02 0 0 1 .167-.135.413.413 0 0 1 .225-.065l.002-.361a.74.74 0 0 0-.33.077c-.1.048-.199.123-.298.226a.947.947 0 0 0-.176.248.714.714 0 0 0-.068.253.586.586 0 0 0 .18.457.706.706 0 0 0 .144.115.42.42 0 0 0 .239.068.487.487 0 0 0 .19-.04.906.906 0 0 0 .205-.122l.197-.148a.547.547 0 0 1 .1-.066.248.248 0 0 1 .076-.017c.06 0 .115.025.163.075a.23.23 0 0 1 .07.202.495.495 0 0 1-.145.245.91.91 0 0 1-.213.164.49.49 0 0 1-.252.066v.37a.777.777 0 0 0 .38-.087 1.37 1.37 0 0 0 .33-.255c.076-.077.136-.16.183-.246a.783.783 0 0 0 .084-.26.604.604 0 0 0-.024-.253zm.445-1.779l-.752-.36-.22.227.351.77.56 1.234.29-.298-.165-.35.506-.522.337.174.293-.301-1.2-.574zm-.094.902l-.255-.544-.084-.177.172.086.523.268-.356.367zM7.34 6.41l-.649.667L5.51 5.863l-.28.287.552.565.879.904.926-.953zm1.168-1.201l-.664.68-.347-.356.564-.58-.249-.257-.564.58-.034-.034-.3-.31.662-.681-.25-.257-.94.968.549.567.879.904.941-.97z" fill="#FDFEFE" fill-rule="nonzero"/><path fill="#040000" fill-rule="nonzero" d="M10.448 3.605l-.004.006.583-.6-.579.594zm-.006.006v.008h.008V3.61h-.008zm-.002.002l-.144.148v.002l.146-.15h-.002zm0 0l-.144.148v.002l.146-.15h-.002zM11.983.89a1.527 1.527 0 0 0-.06-.33c-.013-.042-.03-.077-.045-.116l-.27.278c.077.318.04.81-.174 1.351-.045.114-.094.22-.144.316-.002.006-.006.01-.006.014l-.049.087-.058.096a3.527 3.527 0 0 1-.127.183c-.013.018-.026.037-.042.054a.697.697 0 0 1 .008.066.708.708 0 0 1-.01-.064l-.001.004-.135-1.008-.289-.043-.95.978c.003.033.007.065.013.098l.017.093a2.757 2.757 0 0 0 .048.17l.032.076a.924.924 0 0 0 .036.07.695.695 0 0 0 .082.125.446.446 0 0 1-.506-.347l-.289.299h-.001l-.295.302-1.554 1.599-.28.287-.873.9-.28.286-.496.51-.26.268-.089.091-.272.28-1.051 1.081-.355.364L2.1 10.501l2.131 2.192a.99.99 0 0 0 1.418 0l5.706-5.867.004-.005a.052.052 0 0 0 .011-.023l.006-.026a1.81 1.81 0 0 0 .006-.038c.05-.418-.154-2.173-.317-3.464v-.002c.017-.016.034-.031.05-.049.017-.015.032-.034.05-.052a3.02 3.02 0 0 0 .59-.967c.18-.452.26-.916.228-1.31zm-1.876 1.715a.47.47 0 0 1 .05.592c-.103-.09-.17-.268-.189-.505-.006-.06-.006-.123-.006-.187a.41.41 0 0 1 .145.1zm.169 1.178l-.27.276.247-.256.004-.004.04-.039.003-.006.14-.142-.144.148v.002l-.02.021zm.164-.171l-.144.148v.002l.146-.15h-.002zm.002-.002v.008h.008V3.61h-.008z" opacity=".06"/></g></svg><svg width="17" height="17" viewBox="-2 -2 17 17" id="icon-product-quote-star-full" x="202" y="162" xmlns="http://www.w3.org/2000/svg"><path fill="#FECC2F" fill-rule="evenodd" d="M13 4.974L8.516 4.29 6.5 0 4.484 4.29 0 4.974l3.244 3.322L2.476 13 6.5 10.778 10.524 13l-.768-4.704L13 4.974"/></svg><svg width="17" height="17" viewBox="-2 -2 17 17" id="icon-product-quote-star-gray" x="185" y="162" xmlns="http://www.w3.org/2000/svg"><path fill="#C4C4C4" fill-rule="evenodd" d="M13 4.974L8.516 4.29 6.5 0 4.484 4.29 0 4.974l3.244 3.322L2.476 13 6.5 10.778 10.524 13l-.768-4.704L13 4.974"/></svg><svg width="17" height="17" viewBox="-2 -2 17 17" id="icon-product-quote-star-half" x="168" y="162" xmlns="http://www.w3.org/2000/svg"><defs><path id="bca" d="M13 4.974L8.516 4.29 6.5 0 4.484 4.29 0 4.974l3.244 3.322L2.476 13 6.5 10.778 10.524 13l-.768-4.704L13 4.974"/></defs><g fill="none" fill-rule="evenodd"><path fill="#C4C4C4" d="M13 4.974L8.516 4.29 6.5 0 4.484 4.29 0 4.974l3.244 3.322L2.476 13 6.5 10.778 10.524 13l-.768-4.704L13 4.974"/><mask id="bcb" fill="#fff"><use xlink:href="#bca"/></mask><use fill="#C4C4C4" xlink:href="#bca"/><path fill="#FECC2F" fill-rule="nonzero" d="M0 0h6.5v13H0z" mask="url(#bcb)"/></g></svg><svg width="28" height="28" viewBox="-2 -2 28 28" id="icon-radio-off-enabled" x="84" y="162" xmlns="http://www.w3.org/2000/svg"><defs><path id="bda" d="M12 0c6.627 0 12 5.373 12 12s-5.373 12-12 12S0 18.627 0 12 5.373 0 12 0zm0 1.09C5.975 1.09 1.09 5.976 1.09 12S5.976 22.91 12 22.91 22.91 18.024 22.91 12 18.024 1.09 12 1.09z"/></defs><g fill="none" fill-rule="evenodd"><mask id="bdb" fill="#fff"><use xlink:href="#bda"/></mask><g fill="#000" fill-opacity=".54" mask="url(#bdb)"><path d="M0 0h24v24H0z"/></g></g></svg><svg width="28" height="28" viewBox="-2 -2 28 28" id="icon-radio-on-enabled" x="188" y="64" xmlns="http://www.w3.org/2000/svg"><defs><path id="bea" d="M12 0c6.627 0 12 5.373 12 12s-5.373 12-12 12S0 18.627 0 12 5.373 0 12 0zm4.454 7.636l-7 7-3-3-1 1 3 3 1 1 1-1 7-7-1-1z"/></defs><g fill="none" fill-rule="evenodd"><mask id="beb" fill="#fff"><use xlink:href="#bea"/></mask><g fill="#3F873F" mask="url(#beb)"><path d="M0 0h24v24H0z"/></g></g></svg><svg width="18" height="18" viewBox="-2 -2 18 18" id="icon-search-bar-search" x="133" y="142" xmlns="http://www.w3.org/2000/svg"><defs><path id="bfa" d="M13.743 12.574L9.91 8.74a5.425 5.425 0 0 0 1.05-3.232A5.532 5.532 0 0 0 5.46 0 5.436 5.436 0 0 0 0 5.468a5.532 5.532 0 0 0 5.5 5.508 5.408 5.408 0 0 0 3.242-1.061l.004-.003 3.83 3.831a.826.826 0 1 0 1.167-1.169zM5.496 9.878a4.426 4.426 0 0 1-4.4-4.406 4.35 4.35 0 0 1 4.368-4.374 4.425 4.425 0 0 1 4.4 4.406 4.35 4.35 0 0 1-4.368 4.374z"/></defs><g fill="none" fill-rule="evenodd"><mask id="bfb" fill="#fff"><use xlink:href="#bfa"/></mask><g fill="#3F873F" mask="url(#bfb)"><path d="M0 0h14v14H0z"/></g></g></svg><svg width="28" height="28" viewBox="-2 -2 28 28" id="icon-share-mini-green" x="28" y="162" xmlns="http://www.w3.org/2000/svg"><defs><circle id="bgb" cx="22" cy="22" r="22"/><filter id="bga" width="122.7%" height="122.7%" x="-11.4%" y="-9.1%" filterUnits="objectBoundingBox"><feOffset dy="1" in="SourceAlpha" result="shadowOffsetOuter1"/><feGaussianBlur in="shadowOffsetOuter1" result="shadowBlurOuter1" stdDeviation="1.5"/><feColorMatrix in="shadowBlurOuter1" values="0 0 0 0 0 0 0 0 0 0 0 0 0 0 0 0 0 0 0.16 0"/></filter><path id="bgc" d="M17.333 15.723c-.675 0-1.28.271-1.742.696l-6.338-3.75c.045-.208.08-.416.08-.633 0-.217-.035-.425-.08-.632L15.52 7.69a2.63 2.63 0 0 0 1.813.732C18.81 8.422 20 7.21 20 5.71 20 4.21 18.809 3 17.333 3c-1.475 0-2.666 1.21-2.666 2.71 0 .218.035.426.08.633L8.48 10.057a2.632 2.632 0 0 0-1.813-.732C5.19 9.325 4 10.536 4 12.036c0 1.5 1.191 2.711 2.667 2.711a2.63 2.63 0 0 0 1.813-.732l6.329 3.76a2.59 2.59 0 0 0-.071.586c0 1.455 1.164 2.639 2.595 2.639 1.431 0 2.596-1.184 2.596-2.639 0-1.454-1.165-2.638-2.596-2.638z"/></defs><g fill="none" fill-rule="evenodd"><g transform="translate(-10 -10)"><use fill="#000" filter="url(#bga)" xlink:href="#bgb"/><use fill="#FFF" xlink:href="#bgb"/></g><mask id="bgd" fill="#fff"><use xlink:href="#bgc"/></mask><g fill="#3F873F" mask="url(#bgd)"><path d="M0 0h24v24H0z"/></g></g></svg><svg width="19" height="19" viewBox="-2 -2 19 19" id="icon-table-view-cell-arrow-right" x="58" y="142" xmlns="http://www.w3.org/2000/svg"><defs><path id="bha" d="M5.806 9.925L8.231 7.5 5.806 5.075a.622.622 0 1 1 .881-.881l2.87 2.869a.622.622 0 0 1 0 .88l-2.87 2.87a.622.622 0 0 1-.88 0 .636.636 0 0 1 0-.888z"/></defs><g fill="none" fill-rule="evenodd"><mask id="bhb" fill="#fff"><use xlink:href="#bha"/></mask><g fill="#999" mask="url(#bhb)"><path d="M0 0h14.881v14.881H0z"/></g></g></svg><svg width="18" height="18" viewBox="-2 -2 18 18" id="icon-ugc-thumb-up" x="115" y="142" xmlns="http://www.w3.org/2000/svg"><defs><path id="bia" d="M7.446 1.38L4.842 4.048a.974.974 0 0 0-.272.679v4.81c0 .53.423.963.94.963h4.23a.946.946 0 0 0 .864-.583l1.532-3.664c.395-.953-.286-2.013-1.297-2.013H8.184l.446-2.205a.738.738 0 0 0-.192-.66.687.687 0 0 0-.992.005zM2.69 10.5c.517 0 .94-.433.94-.963V5.685a.954.954 0 0 0-.94-.963.954.954 0 0 0-.94.963v3.852c0 .53.423.963.94.963z"/></defs><g fill="none" fill-rule="evenodd" transform="translate(-12 -119)"><path fill="#FFF" d="M0 0h254v145H0z"/><rect width="255" height="146" x="-.5" y="-.5" stroke="#EEE" rx="6"/><g transform="translate(12 119)"><mask id="bib" fill="#fff"><use xlink:href="#bia"/></mask><use fill="#000" fill-rule="nonzero" xlink:href="#bia"/><g fill="#999" mask="url(#bib)"><path d="M0 0h14.08v14.08H0z"/></g></g></g></svg><svg width="58" height="58" viewBox="-2 -2 58 58" id="icon-we-chat-circle" x="104" y="22" xmlns="http://www.w3.org/2000/svg"><defs><path id="bja" d="M17.333 15.723c-.675 0-1.28.271-1.742.696l-6.338-3.75c.045-.208.08-.416.08-.633 0-.217-.035-.425-.08-.632L15.52 7.69a2.63 2.63 0 0 0 1.813.732C18.81 8.422 20 7.21 20 5.71 20 4.21 18.809 3 17.333 3c-1.475 0-2.666 1.21-2.666 2.71 0 .218.035.426.08.633L8.48 10.057a2.632 2.632 0 0 0-1.813-.732C5.19 9.325 4 10.536 4 12.036c0 1.5 1.191 2.711 2.667 2.711a2.63 2.63 0 0 0 1.813-.732l6.329 3.76a2.59 2.59 0 0 0-.071.586c0 1.455 1.164 2.639 2.595 2.639 1.431 0 2.596-1.184 2.596-2.639 0-1.454-1.165-2.638-2.596-2.638z"/></defs><g fill="none" fill-rule="evenodd"><circle cx="27" cy="27" r="27" fill="#F8F8F8" fill-rule="nonzero"/><g transform="translate(15 15)"><mask id="bjb" fill="#fff"><use xlink:href="#bja"/></mask><g fill="#3F873F" mask="url(#bjb)"><path d="M0 0h24v24H0z"/></g></g></g></svg><svg width="17" height="17" viewBox="-2 -2 17 17" id="invalid-name" y="190" xmlns="http://www.w3.org/2000/svg"><g fill="#3F873F" fill-rule="nonzero"><path d="M8.774 4.745c.153 0 .306 0 .459.03-.398-1.853-2.385-3.243-4.647-3.243C2.049 1.532 0 3.262 0 5.486c0 1.267.704 2.318 1.835 3.121l-.459 1.39 1.62-.803c.581.124 1.04.247 1.62.247.153 0 .276 0 .429-.03a3.516 3.516 0 0 1-.153-.99c0-2.008 1.712-3.676 3.882-3.676zM6.328 3.509c.337 0 .581.216.581.587 0 .34-.214.587-.58.587-.337 0-.704-.247-.704-.587 0-.37.337-.587.703-.587zm-3.24 1.143c-.336 0-.703-.247-.703-.587 0-.34.336-.587.703-.587.336 0 .58.216.58.587 0 .37-.213.587-.58.587z"/><path d="M12.993 8.39c0-1.853-1.834-3.367-3.913-3.367-2.201 0-3.913 1.514-3.913 3.368 0 1.854 1.712 3.367 3.913 3.367.458 0 .917-.123 1.375-.247l1.254.711-.336-1.174c.917-.68 1.62-1.638 1.62-2.657zm-5.197-.586c-.214 0-.459-.217-.459-.464 0-.216.245-.463.459-.463.336 0 .58.247.58.463 0 .216-.213.464-.58.464zm2.537 0c-.214 0-.458-.217-.458-.464 0-.216.244-.463.458-.463.336 0 .581.247.581.463 0 .216-.245.464-.58.464z"/></g></svg><svg width="84" height="22" viewBox="-2 -2 84 22" id="logo-wechat" x="104" xmlns="http://www.w3.org/2000/svg"><g fill="none" fill-rule="evenodd"><path fill="#1AAD19" d="M7.198 11.412a.655.655 0 0 1-.87-.266l-.044-.094-1.8-3.96a.468.468 0 0 1 0-.144.324.324 0 0 1 .332-.324.297.297 0 0 1 .194.065L7.17 8.2c.16.107.347.164.54.165.115.001.23-.02.337-.064l9.948-4.457A10.623 10.623 0 0 0 9.905.353C4.434.353 0 4.046 0 8.64a7.755 7.755 0 0 0 3.426 6.235c.224.165.32.454.238.72l-.446 1.685a.936.936 0 0 0-.05.238.324.324 0 0 0 .33.33.41.41 0 0 0 .187-.057l2.16-1.253a1.006 1.006 0 0 1 .813-.108 11.82 11.82 0 0 0 3.232.447c5.47 0 9.912-3.694 9.912-8.251a7.158 7.158 0 0 0-1.087-3.845L7.277 11.369l-.079.043z"/><path fill="#231815" d="M43.663 6.221h7.428v1h-7.428zm0 2.081h7.428v1h-7.428z"/><path fill="#231815" fill-rule="nonzero" d="M50.905 14.465V10.44H43.85v4.025h7.054zm-6.335-3.363h5.622v2.693H44.57v-2.693z"/><path fill="#231815" d="M41.626 14.882V5.623c.43-.934.795-1.896 1.095-2.88l-.663-.381a21.192 21.192 0 0 1-2.821 6.17l.396.72c.417-.62.856-1.346 1.274-2.11v7.776l.72-.036zm27 0V5.623a24.08 24.08 0 0 0 1.102-2.88l-.67-.381a21.005 21.005 0 0 1-2.836 6.17l.396.72c.418-.62.857-1.346 1.274-2.11v7.776l.734-.036zM51.876 4.09h-4.369l.468-.267c-.05-.122-.194-.417-.338-.72-.144-.302-.28-.583-.346-.72l-.662.382c.238.446.44.857.62 1.253.022.04.039.084.05.13h-4.363v.72h8.94V4.09zM32.7 3.542h-.669v2.34h-1.26V2.55h-.661v3.333H28.8v-2.34h-.67v3.01h4.57zm-4.361 4.32h4.053v1h-4.053zm.871 3.248v-.605h2.044v1.49c.03.325-.052.65-.23.922l.41.72c.36-.288.972-.814 1.821-1.555l-.302-.562-1.03.878V9.842h-3.426v1.008c.094 1.39-.252 2.376-1.03 2.945l.368.641a3.845 3.845 0 0 0 1.375-3.326zm-4.37-5.408l.404.72a13.68 13.68 0 0 0 2.57-3.6l-.62-.36a11.52 11.52 0 0 1-2.353 3.24zm-.187 4.191l.375.64c.396-.46.784-.943 1.151-1.44v5.76h.663v-6.86c.323-.576.613-1.17.87-1.778l-.647-.368a14.055 14.055 0 0 1-2.426 4.032l.014.015z"/><path fill="#231815" fill-rule="nonzero" d="M37.588 5.508v-.662H34.63c.29-.794.505-1.614.64-2.448h-.72a16.664 16.664 0 0 1-1.943 5.176l.418.72.31-.619c.114-.201.208-.374.28-.511.125 1.489.49 2.947 1.08 4.32a10.943 10.943 0 0 1-2.232 2.614l.382.662a10.922 10.922 0 0 0 2.16-2.57 13.27 13.27 0 0 0 2.05 2.606l.39-.684a10.72 10.72 0 0 1-1.987-2.592 15.059 15.059 0 0 0 1.44-6.02l.69.008zm-2.461 5.184a18.386 18.386 0 0 1-.972-4.58 4.32 4.32 0 0 1 .252-.604h1.785a15.332 15.332 0 0 1-1.065 5.184zm30.26-5.89v-.72h-5.643V2.29h-.72v1.8h-5.672v.72h5.629V7.2h-3.65v.648a12.73 12.73 0 0 0 1.692 2.635 12.008 12.008 0 0 0 1.684 1.692 14.746 14.746 0 0 1-5.103 1.966l.425.72a17.604 17.604 0 0 0 5.254-2.254 13.804 13.804 0 0 0 4.996 2.24l.295-.555s-.785-.209-1.965-.662a13.927 13.927 0 0 1-2.836-1.44 10.598 10.598 0 0 0 3.599-4.63l-.605-.36h-3.023V4.802h5.643zm-2.879 2.996a9.021 9.021 0 0 1-3.24 3.88 11.059 11.059 0 0 1-3.217-3.88h6.457z"/><path fill="#231815" d="M74.507 13.954h-.41v.72h.626a1.77 1.77 0 0 0 1.39-.454c.317-.367.468-.85.417-1.332V6.214h1.929v-.72h-1.93V2.412h-.719v3.082h-5.931v.72h5.931v6.674c0 .727-.453 1.066-1.303 1.066z"/><path fill="#231815" d="M72.902 11.578l.72-.418c-.382-.778-.893-1.807-1.526-3.074l-.648.381a57.81 57.81 0 0 1 1.454 3.11z"/></g></svg><svg width="8" height="11" viewBox="-2 -2 8 11" id="path-1" x="176" y="123" xmlns="http://www.w3.org/2000/svg"><path fill="#3F873F" fill-rule="evenodd" d="M.177 5.927l2.357-2.43L.177 1.066A.638.638 0 0 1 .021.463.615.615 0 0 1 .449.02a.593.593 0 0 1 .585.162l2.789 2.876a.633.633 0 0 1 0 .882l-2.79 2.876a.595.595 0 0 1-.855 0 .652.652 0 0 1 0-.89z"/></svg><svg width="12" height="11" viewBox="-2 -2 12 11" id="triangle-2" x="164" y="123" xmlns="http://www.w3.org/2000/svg"><path fill="none" stroke="#E75C53" d="M4 1l3 5H1z"/></svg></svg>